<?xml version="1.0" encoding="UTF-8"?>
<!DOCTYPE svg PUBLIC "-//W3C//DTD SVG 1.1//EN" "http://www.w3.org/Graphics/SVG/1.1/DTD/svg11.dtd">
<!-- Creator: CorelDRAW -->
<svg xmlns="http://www.w3.org/2000/svg" xml:space="preserve" width="16.8256mm" height="12.4036mm" version="1.1" style="shape-rendering:geometricPrecision; text-rendering:geometricPrecision; image-rendering:optimizeQuality; fill-rule:evenodd; clip-rule:evenodd"
viewBox="0 0 61.34 45.22"
 xmlns:xlink="http://www.w3.org/1999/xlink"
 xmlns:xodm="http://www.corel.com/coreldraw/odm/2003">
 <defs>
  <style type="text/css">
   <![CDATA[
    .fil1 {fill:#719620}
    .fil0 {fill:#97C73F}
   ]]>
  </style>
 </defs>
 <g id="Camada_x0020_1">
  <metadata id="CorelCorpID_0Corel-Layer"/>
  <path class="fil0" d="M45.24 6.88l-11.09 15.14c-0.84,1.15 -2.07,1.77 -3.49,1.77 -1.42,0 -2.65,-0.62 -3.49,-1.77l-11.09 -15.14c-0.99,-1.35 -1.12,-3.02 -0.37,-4.51 0.76,-1.49 2.19,-2.37 3.86,-2.37l22.17 0c1.67,0 3.1,0.88 3.86,2.37 0.75,1.49 0.62,3.16 -0.37,4.51z"/>
  <path class="fil1" d="M30.67 31.69c2.83,0 5.26,-1.23 6.94,-3.52l20.63 -28.18c0.87,0.73 1.6,1.65 2.14,2.74 0.78,1.54 0.97,2.89 0.95,4.55l-0.01 28.96c-0,3.48 -2.94,6.96 -5.07,8.01 -2.13,1.06 -2.33,0.88 -3.52,0.95l0.03 -24.1c-6.44,8.61 -10.87,19.52 -22.09,19.55 -11.23,-0.02 -15.66,-10.94 -22.09,-19.55l0.03 24.1c-1.19,-0.07 -1.39,0.1 -3.52,-0.95 -2.13,-1.06 -5.07,-4.54 -5.07,-8.01l-0.01 -28.96c-0.02,-1.66 0.17,-3.01 0.95,-4.55 0.55,-1.08 1.28,-2 2.14,-2.74l20.63 28.18c1.67,2.28 4.11,3.52 6.94,3.52z"/>
 </g>
</svg>
