<?xml version="1.0" encoding="UTF-8"?>
<!DOCTYPE svg PUBLIC "-//W3C//DTD SVG 1.1//EN" "http://www.w3.org/Graphics/SVG/1.1/DTD/svg11.dtd">
<!-- Creator: CorelDRAW -->
<svg xmlns="http://www.w3.org/2000/svg" xml:space="preserve" width="78.0954mm" height="12.5384mm" version="1.1" style="shape-rendering:geometricPrecision; text-rendering:geometricPrecision; image-rendering:optimizeQuality; fill-rule:evenodd; clip-rule:evenodd"
viewBox="0 0 1321.36 212.15"
 xmlns:xlink="http://www.w3.org/1999/xlink"
 xmlns:xodm="http://www.corel.com/coreldraw/odm/2003">
 <defs>
  <style type="text/css">
   <![CDATA[
    .fil1 {fill:#719620}
    .fil0 {fill:#97C73F}
    .fil2 {fill:#719620;fill-rule:nonzero}
   ]]>
  </style>
 </defs>
 <g id="Camada_x0020_1">
  <metadata id="CorelCorpID_0Corel-Layer"/>
  <g id="_3176143951568">
   <path class="fil0" d="M209.99 31.92l-51.46 70.28c-3.9,5.33 -9.59,8.21 -16.19,8.21 -6.61,0 -12.29,-2.88 -16.19,-8.21l-51.46 -70.28c-4.58,-6.25 -5.21,-14.02 -1.71,-20.93 3.51,-6.91 10.15,-10.99 17.9,-10.99l102.92 0c7.75,0 14.39,4.08 17.9,10.99 3.5,6.91 2.87,14.68 -1.71,20.93z"/>
   <path class="fil1" d="M142.34 147.11c13.13,0 24.43,-5.73 32.19,-16.33l95.76 -130.78c4.02,3.4 7.4,7.67 9.95,12.7 3.62,7.14 4.51,13.44 4.43,21.13l-0.07 134.41c-0.01,16.15 -13.65,32.3 -23.53,37.2 -9.88,4.9 -10.81,4.09 -16.32,4.42l0.12 -111.87c-29.88,39.94 -50.43,90.62 -102.54,90.73 -52.11,-0.11 -72.67,-50.79 -102.54,-90.73l0.13 111.87c-5.51,-0.34 -6.44,0.47 -16.32,-4.42 -9.88,-4.9 -23.52,-21.05 -23.53,-37.2l-0.07 -134.41c-0.09,-7.7 0.8,-13.99 4.43,-21.13 2.55,-5.03 5.93,-9.3 9.95,-12.7l95.76 130.78c7.76,10.6 19.06,16.33 32.19,16.33z"/>
   <path class="fil2" d="M360.16 79.93l133.1 0c0,-16.27 -1.95,-34.43 -27.46,-34.43l-97.4 0c-21.44,0 -38.93,-17.49 -38.93,-38.93l0 -0.83 136.33 0c46.95,0 67.96,36.18 67.96,78.23 0,27.44 0,54.89 0,82.33 0,12.53 -5.14,23.93 -13.4,32.2l-0.08 0.08c-8.27,8.27 -19.67,13.4 -32.2,13.4l-127.92 0c-12.58,0 -24.01,-5.13 -32.28,-13.4 -8.27,-8.27 -13.4,-19.69 -13.4,-32.28l0 -40.68c0,-12.58 5.13,-24.01 13.4,-32.28 8.27,-8.27 19.7,-13.4 32.28,-13.4zm133.84 39.76l-133.84 0c-1.6,0 -3.08,0.67 -4.16,1.75 -1.08,1.08 -1.75,2.56 -1.75,4.16l0 40.68c0,1.61 0.67,3.08 1.75,4.16 1.08,1.08 2.56,1.75 4.16,1.75l127.92 0c1.64,0 3.13,-0.66 4.2,-1.71 1.06,-1.08 1.71,-2.56 1.71,-4.2l0 -46.6z"/>
   <path class="fil2" d="M743.11 172.94l0 -95.26c0,-8.83 -3.63,-16.87 -9.47,-22.72 -5.84,-5.84 -13.89,-9.47 -22.72,-9.47l-75.37 0c-8.83,0 -16.88,3.63 -22.72,9.47 -5.84,5.84 -9.47,13.89 -9.47,22.72l0 95.25c0,21.44 -17.49,38.93 -38.93,38.93l-0.83 0 0 -134.18c0,-19.8 8.09,-37.8 21.12,-50.83 13.03,-13.03 31.02,-21.12 50.83,-21.12l75.37 0c19.81,0 37.8,8.09 50.83,21.12 13.03,13.03 21.12,31.02 21.12,50.83l0 134.19 -0.83 0c-21.44,0 -38.93,-17.49 -38.93,-38.93z"/>
   <path class="fil2" d="M915.07 45.49l0 127.72c0,21.44 -17.49,38.93 -38.93,38.93l-0.83 0 0 -166.65 -41.97 0c-21.44,0 -38.93,-17.49 -38.93,-38.93l0 -0.83 162.64 0c21.44,0 38.93,17.49 38.93,38.93l0 0.83 -80.9 0z"/>
   <path class="fil2" d="M1065.54 44.66l0 167.3 -0.83 0c-21.44,0 -38.93,-17.49 -38.93,-38.93l0 -167.3 0.83 0c21.44,0 38.93,17.49 38.93,38.93z"/>
   <path class="fil2" d="M1143.8 172.38l118.81 0c4.97,0 9.55,-2.25 12.92,-5.87 3.74,-4 6.06,-9.63 6.06,-15.91 0,-6.28 -2.32,-11.91 -6.06,-15.91 -3.38,-3.62 -7.96,-5.87 -12.92,-5.87l-108.53 0 0 -0.08c-16.46,-0 -31.3,-7.1 -41.97,-18.53 -10.35,-11.1 -16.78,-26.3 -16.78,-42.94 0,-16.63 6.43,-31.84 16.78,-42.94 10.71,-11.48 25.56,-18.61 41.97,-18.61l147.4 0 0 0.83c0,21.44 -17.49,38.93 -38.93,38.93l-108.46 0c-4.97,0 -9.55,2.25 -12.92,5.87 -3.74,4.01 -6.06,9.63 -6.06,15.91 0,6.28 2.32,11.91 6.05,15.91 3.42,3.67 8.01,5.95 12.93,5.95l0 -0.08 108.53 0c16.41,0 31.26,7.13 41.97,18.6 10.35,11.09 16.77,26.3 16.77,42.94 0,16.64 -6.43,31.84 -16.77,42.94 -10.71,11.48 -25.56,18.61 -41.97,18.61l-157.75 0 0 -0.83c0,-21.44 17.49,-38.93 38.93,-38.93z"/>
  </g>
 </g>
</svg>
