<?xml version="1.0" encoding="UTF-8"?>
<!DOCTYPE svg PUBLIC "-//W3C//DTD SVG 1.1//EN" "http://www.w3.org/Graphics/SVG/1.1/DTD/svg11.dtd">
<!-- Creator: CorelDRAW 2021.5 -->
<svg xmlns="http://www.w3.org/2000/svg" xml:space="preserve" width="131.818mm" height="117.445mm" version="1.1" style="shape-rendering:geometricPrecision; text-rendering:geometricPrecision; image-rendering:optimizeQuality; fill-rule:evenodd; clip-rule:evenodd"
viewBox="0 0 13181.8 11744.54"
 xmlns:xlink="http://www.w3.org/1999/xlink"
 xmlns:xodm="http://www.corel.com/coreldraw/odm/2003">
 <defs>
  <style type="text/css">
   <![CDATA[
    .fil7 {fill:none}
    .fil12 {fill:#375032}
    .fil17 {fill:#476039}
    .fil14 {fill:#495F38}
    .fil4 {fill:#516E36}
    .fil9 {fill:#536E39}
    .fil15 {fill:#638246}
    .fil8 {fill:#79953E}
    .fil0 {fill:#799540}
    .fil6 {fill:#83AF00}
    .fil13 {fill:#93C83A}
    .fil5 {fill:#94C546}
    .fil3 {fill:#97C73F}
    .fil11 {fill:#A5CC55}
    .fil2 {fill:#B8DB7C}
    .fil16 {fill:#B8DC7C}
    .fil10 {fill:#C6D82C}
    .fil1 {fill:#CAD725}
   ]]>
  </style>
 </defs>
 <g id="Camada_x0020_1">
  <metadata id="CorelCorpID_0Corel-Layer"/>
  <g id="_1988601972496">
   <polygon class="fil0" points="11687.63,2689.5 11802.44,1346.12 11307.46,984.44 "/>
   <polygon class="fil1" points="11802.44,1346.12 11687.63,2689.5 12221.53,984.44 "/>
   <polygon class="fil2" points="12221.53,984.44 11687.63,2689.5 12715.25,1271.49 "/>
   <polygon class="fil3" points="11687.63,2689.5 11307.46,984.44 10787.86,1271.49 "/>
   <polygon class="fil4" points="11802.44,1346.12 11179.93,0 11307.46,984.44 "/>
   <polygon class="fil5" points="11802.44,1346.12 12313.13,9.99 12221.53,984.44 "/>
   <polygon class="fil6" points="11953.3,951.43 11619.7,950.97 11802.44,1346.12 "/>
   <polygon class="fil7" points="11224.76,1960.03 11040.96,2042.28 11687.63,2689.5 "/>
   <polygon class="fil8" points="10787.86,1271.49 11224.76,1960.03 10332.51,2355.36 9573.7,2594.99 "/>
   <polygon class="fil9" points="9573.7,2594.99 9713.48,3204.04 10367.27,2339.97 "/>
   <polygon class="fil8" points="9573.7,2594.99 9209.27,3014.33 9458.88,6159.41 10247.64,5545.37 "/>
   <polygon class="fil10" points="9836.43,3041.54 9713.48,3204.04 10159.24,5158.36 10352.48,4621.81 "/>
   <polygon class="fil11" points="10352.48,4621.81 11810.2,4462.07 12134.69,4806.52 10159.24,5158.36 "/>
   <polygon class="fil10" points="10247.64,5545.37 12738.75,6024.62 12144.67,6793.41 9458.88,6159.41 "/>
   <polygon class="fil8" points="11493.19,5784.99 11768.87,4871.68 12134.69,4806.52 11771.48,5838.54 "/>
   <polygon class="fil8" points="11318.67,6598.43 10971.51,7642.09 11481.15,6636.78 "/>
   <polygon class="fil8" points="12144.67,6793.41 13181.8,9367.02 12738.75,6024.62 "/>
   <polygon class="fil9" points="9209.27,3014.33 7814.91,4529.95 8426.11,5071.3 9272.79,3814.69 "/>
   <polygon class="fil12" points="7814.91,4529.95 7516.7,5804.89 8426.11,5071.3 "/>
   <polygon class="fil8" points="8077.61,5352.42 8623.04,7006.4 8246.71,7158.25 7516.7,5804.89 "/>
   <polygon class="fil10" points="8246.71,7158.25 9408.71,8115.58 9560.56,8009.95 8623.04,7006.4 "/>
   <polygon class="fil13" points="9560.56,8009.95 9642.82,9836.57 9408.71,8115.58 "/>
   <polygon class="fil14" points="7814.91,4529.95 6956.74,5837.44 6683.4,5920.96 6668.21,7530.61 7184.51,7454.68 7516.7,5804.89 "/>
   <polygon class="fil8" points="6668.21,7530.61 7981.74,9147.85 8239.9,8965.62 7184.51,7454.68 "/>
   <polygon class="fil8" points="7981.74,9147.85 8148.78,11744.54 8239.9,8965.62 "/>
   <polygon class="fil12" points="6683.4,5920.96 4527.08,6908.01 4739.67,7431.91 5673.57,7272.46 6679.96,6285.38 "/>
   <polygon class="fil8" points="5673.57,7272.46 4899.12,7910.24 1862.06,8191.17 1983.54,7925.43 "/>
   <polygon class="fil13" points="1983.54,7925.43 1421.68,8327.84 391.94,10859.43 1862.06,8191.17 "/>
   <polygon class="fil13" points="3617.16,8028.82 2711.48,10337.28 3909.57,8001.77 "/>
   <polygon class="fil15" points="7814.91,4529.95 2189.33,5999.42 2360.04,7686.36 6683.4,5920.96 6956.74,5837.44 "/>
   <polygon class="fil16" points="7378.13,4644.04 2490.57,5507.39 2591.65,5894.33 "/>
   <polygon class="fil17" points="2218.6,6288.67 863.88,6300.66 2455.98,7841.82 4527.08,6908.01 6683.4,5920.96 2360.04,7686.36 "/>
   <polygon class="fil8" points="863.88,6300.66 -0,7063.8 2455.98,7841.82 "/>
  </g>
 </g>
</svg>
